<?xml version="1.0" encoding="utf-8"?>
<!-- Uploaded to: SVG Repo, www.svgrepo.com, Generator: SVG Repo Mixer Tools -->
<svg width="800px" height="800px" viewBox="0 -1.5 1027 1027" class="icon"  version="1.1" xmlns="http://www.w3.org/2000/svg"><path d="M930.321767 162.483281c-59.114196-81.726183-198.016404 42.316719-221.920505 64.605678-56.852997-30.04164-122.104732-46.839117-191.555836-46.839117-91.740063 0-176.373502 29.718612-243.886435 79.464984C306.876972 274.574132 338.856782 296.217035 358.238486 310.753312c47.162145-27.134385 102.723028-42.962776 162.160252-42.962776 171.205047 0 310.107256 129.857413 310.107256 290.079496 0 160.222082-138.902208 290.079495-310.107256 290.079495s-310.107256-129.857413-310.107255-290.079495c0-34.887066 6.460568-68.158991 18.735646-99.169717-17.120505-12.275079-48.454259-34.241009-72.035331-62.990536-24.873186 49.423344-38.763407 104.661199-38.763407 163.129338 0 208.999369 178.311672 378.589274 398.294006 378.589274S914.816404 767.838486 914.816404 558.839117c0-75.588644-23.258044-146.008833-63.636593-205.123029 22.611987-20.350789 141.809464-104.984227 79.141956-191.232807z" fill="#E3FFE1" /><path d="M948.411356 142.455521c-59.114196-81.726183-198.016404 42.316719-221.920504 64.605678-56.852997-29.718612-122.104732-46.839117-191.878865-46.839117-91.740063 0-176.373502 29.718612-243.886435 79.464984 2.584227 1.292114 5.168454 2.261199 7.752681 3.553313 58.468139-31.979811 125.981073-50.069401 198.016404-50.069401 69.451104 0 135.025868 17.120505 191.878865 46.839117 23.904101-22.288959 162.806309-146.331861 221.920504-64.605679 62.344479 86.571609-56.529968 170.882019-78.818927 191.555836 40.055521 59.114196 63.636593 129.534385 63.636593 205.123029 0 102.723028-43.285804 195.755205-113.059937 264.237224 92.063091-69.451104 151.177287-176.373502 151.177287-296.863092 0-75.588644-23.258044-146.008833-63.636593-205.123028 21.965931-20.673817 141.163407-105.307256 78.818927-191.878864z" fill="#AED6B9" /><path d="M676.744479 811.447319c-5.491483 0-10.982965-2.907256-14.213249-8.07571-4.522397-7.752681-1.93817-17.766562 5.814511-22.611988 87.540694-52.007571 139.548265-140.194322 139.548265-235.810725 0-154.730599-136.641009-280.711672-304.938801-280.711672-56.529968 0-112.090852 14.536278-159.899054 41.670662l-9.044795 5.168455-8.398738-6.13754c-20.673817-14.859306-52.007571-35.856151-85.602523-50.715457l-25.842272-11.629022 22.935016-16.797477C312.368454 171.528076 403.139432 142.132492 499.078864 142.132492c68.158991 0 135.671924 15.505363 196.078234 44.577918 34.564038-30.687697 118.228391-97.231546 186.064353-90.447949 24.873186 2.261199 44.900946 13.890221 59.760252 34.564037 66.543849 90.770978-36.502208 178.311672-73.327444 208.676341 39.732492 62.344479 60.406309 133.733754 60.406309 206.73817 0 9.044795-7.429653 16.474448-16.474448 16.474448s-16.474448-7.429653-16.474448-16.474448c0-71.389274-21.642902-140.840379-62.990536-200.60063l-8.07571-11.952051 10.659937-9.690852c2.584227-2.261199 5.814511-5.168454 10.01388-8.721766 55.237855-45.870032 113.059937-105.953312 69.451104-165.713565-9.367823-12.921136-21.319874-19.704732-36.502208-21.319874-48.13123-4.522397-121.135647 45.547003-168.943849 89.801893l-8.398738 7.752681-10.336908-5.168454C631.843533 190.586751 565.622713 174.435331 498.755836 174.435331c-79.464984 0-154.730599 21.642902-219.982334 62.667508C300.416404 248.731861 320.444164 261.652997 335.949527 272.635962c50.715457-26.811356 108.214511-41.024606 167.005678-41.024606 186.064353 0 337.564669 140.51735 337.564669 313.33754 0 107.245426-58.14511 206.092114-155.699685 263.914195-2.261199 1.93817-5.168454 2.584227-8.07571 2.584228zM803.694637 824.045426c-4.199369 0-8.07571-1.615142-11.305993-4.522398-6.460568-6.460568-6.460568-16.797476-0.323029-23.258044 16.797476-17.443533 31.979811-36.17918 44.900947-55.883911 4.845426-7.429653 15.182334-9.690852 22.611987-4.845426s9.690852 15.182334 4.845426 22.611987c-14.213249 21.642902-30.687697 41.993691-48.777287 60.729338-3.553312 3.553312-7.752681 5.168454-11.952051 5.168454z" fill="#493B4E" /><path d="M788.835331 838.581703c-4.522397 0-8.721767-1.615142-11.95205-5.168454-6.137539-6.783596-5.814511-17.120505 0.969085-23.258044 4.845426-4.522397 9.690852-9.367823 14.213249-13.890221 6.460568-6.460568 16.797476-6.460568 23.258044-0.323028 6.460568 6.460568 6.460568 16.797476 0.323029 23.258044-4.845426 5.168454-10.336909 10.336909-15.505363 15.182334-3.553312 2.907256-7.429653 4.199369-11.305994 4.199369z" fill="#493B4E" /><path d="M694.188013 904.479495c-6.137539 0-11.629022-3.230284-14.536278-9.044795-4.199369-8.07571-0.969085-18.08959 7.106625-21.96593 28.426498-14.536278 55.237855-31.979811 79.141955-52.653628 6.783596-5.814511 17.120505-5.168454 22.935016 1.93817 5.814511 6.783596 5.168454 17.120505-1.93817 22.935016-26.1653 22.288959-54.914826 41.347634-85.602524 56.852997-2.261199 1.292114-4.845426 1.93817-7.106624 1.93817zM499.078864 950.349527c-198.662461 0-370.190536-126.950158-417.029653-308.492114-2.261199-8.721767 2.907256-17.766562 11.629022-20.02776 8.721767-2.261199 17.766562 2.907256 20.027761 11.629022C156.66877 800.787382 315.27571 917.400631 499.078864 917.400631c51.361514 0 101.430915-9.044795 148.916089-27.134385 8.398738-3.230284 17.766562 0.969085 20.996845 9.367823s-0.969085 17.766562-9.367823 20.996846c-51.038486 19.704732-104.984227 29.718612-160.545111 29.718612zM86.571609 573.375394c-8.721767 0-16.15142-7.106625-16.474448-15.828391 0-3.876341-0.323028-7.752681-0.323029-11.305994 0-9.044795 7.429653-16.474448 16.474448-16.474447s16.474448 7.429653 16.474448 16.474447v10.336909c0.323028 9.044795-6.783596 16.474448-15.828391 16.797476h-0.323028z" fill="#493B4E" /><path d="M502.955205 858.609464c-186.064353 0-337.564669-140.51735-337.564669-313.33754 0-32.625868 5.491483-64.605678 15.828391-95.293375-14.213249-10.336909-32.948896-24.227129-50.392429-41.670663-18.735647 43.931861-28.426498 90.124921-28.426498 137.933123 0 9.044795-7.429653 16.474448-16.474448 16.474448s-16.474448-7.429653-16.474448-16.474448c0-61.052366 14.213249-119.843533 41.993691-174.435331l11.305994-22.288959 15.828391 19.058675c22.288959 26.811356 52.007571 47.808202 69.774132 60.406309l12.275079 8.721767-4.845426 11.952051c-11.95205 30.687697-18.08959 62.667508-18.08959 95.616403 0 154.730599 136.641009 280.711672 304.938802 280.711672 9.044795 0 16.474448 7.429653 16.474448 16.474448s-7.106625 16.15142-16.15142 16.15142zM97.877603 300.093375c-1.292114 0-2.584227-0.323028-4.19937-0.646056-8.721767-2.261199-13.890221-11.305994-11.95205-20.027761 2.907256-11.305994 7.752681-22.288959 14.536278-33.271924 4.845426-7.752681 14.859306-10.01388 22.611987-5.168454 7.752681 4.845426 10.01388 14.859306 5.168454 22.611987-4.845426 8.07571-8.398738 16.15142-10.659937 23.904101-1.615142 7.752681-8.07571 12.598107-15.505362 12.598107zM143.101577 243.240379c-6.460568 0-12.598107-3.876341-15.182334-10.336909-3.230284-8.398738 0.646057-18.08959 9.044795-21.319874 6.137539-2.584227 12.598107-4.199369 19.704732-5.491482 9.044795-1.292114 17.443533 4.845426 18.735646 13.567192 1.292114 9.044795-4.845426 17.443533-13.567192 18.735647-4.522397 0.646057-8.721767 1.93817-12.598107 3.230284-1.93817 1.292114-4.199369 1.615142-6.13754 1.615142z" fill="#493B4E" /><path d="M824.368454 561.746372c-9.044795 0-16.474448-7.429653-16.474448-16.474448 0-154.730599-136.641009-280.711672-304.938801-280.711672-56.529968 0-112.090852 14.536278-159.899054 41.670663l-9.044795 5.168454-8.398738-6.137539c-31.656782-22.611987-110.47571-74.942587-163.775394-66.543849-9.044795 1.292114-17.443533-4.845426-18.735647-13.567192-1.292114-9.044795 4.845426-17.443533 13.567193-18.735647 59.114196-9.367823 134.702839 35.210095 179.603785 66.543849 50.715457-26.811356 108.214511-41.024606 167.005678-41.024606 186.064353 0 337.564669 140.51735 337.564669 313.337539 0 9.044795-7.429653 16.474448-16.474448 16.474448zM608.262461 842.458044c-6.783596 0-13.244164-4.522397-15.505363-11.305994-2.907256-8.721767 1.93817-17.766562 10.659937-20.673817 6.783596-2.261199 13.567192-4.522397 20.02776-7.106624 8.398738-3.230284 18.08959 0.646057 21.319874 9.367823 3.230284 8.398738-0.646057 17.766562-9.367824 21.319874-7.106625 2.907256-14.536278 5.491483-21.96593 7.752681-1.93817 0.323028-3.553312 0.646057-5.168454 0.646057zM95.293375 315.27571h-1.292113c-9.044795-0.646057-15.828391-8.398738-15.182335-17.443533 0.323028-6.137539 1.292114-11.95205 2.907256-18.08959 2.261199-8.721767 11.305994-13.890221 20.02776-11.952051 8.721767 2.261199 13.890221 11.305994 11.952051 20.027761-0.969085 4.199369-1.615142 8.07571-1.938171 12.275078-0.646057 8.398738-7.752681 15.182334-16.474448 15.182335z" fill="#493B4E" /><path d="M109.506625 339.179811l0.969085-10.659937c-0.323028-1.93817-0.646057-3.553312-0.646057-5.168454-0.646057 5.168454-0.969085 10.659937-0.323028 15.828391zM500.04795 281.680757c-59.114196 0-114.35205 14.536278-161.191168 40.055521C291.04858 288.464353 170.558991 215.459937 123.719874 287.495268c-5.814511 9.044795-9.690852 17.766562-11.952051 26.488328l-1.292113 14.213249c3.230284 17.766562 21.965931 52.653628 102.4 108.860568l-5.168454 21.319874c0.969085 0.646057 1.93817 1.292114 2.584227 1.93817-4.199369 10.659937-8.07571 21.319874-10.659937 32.30284l-1.615142 7.429653c-3.876341 17.120505-5.814511 34.887066-5.814511 52.976656 0 149.885174 137.933123 271.666877 307.846057 271.666877 169.912934 0 307.846057-121.458675 307.846056-271.666877s-137.933123-271.343849-307.846056-271.343849z" fill="#AED6B9" /><path d="M722.291483 365.668139c40.055521 45.870032 63.959621 103.369085 63.959621 165.713564 0 149.885174-137.933123 271.666877-307.846057 271.666877-84.31041 0-160.868139-30.04164-216.75205-78.495899 56.20694 64.28265 144.716719 105.953312 243.886435 105.953313 169.912934 0 307.846057-121.458675 307.846057-271.666877 0-75.911672-34.887066-144.070662-91.094006-193.170978z" fill="#83A589" /><path d="M165.713565 297.832177c-0.646057-1.292114-0.969085-2.584227-1.292114-3.876341-1.615142-9.044795 4.199369-17.443533 12.921136-19.058675 11.305994-2.261199 23.581073-2.584227 36.17918-0.969085 9.044795 0.969085 15.505363 9.367823 14.213249 18.08959-0.969085 9.044795-9.367823 15.505363-18.08959 14.213249-9.367823-0.969085-18.08959-0.969085-26.1653 0.646057-7.429653 1.615142-14.536278-2.261199-17.766561-9.044795z" fill="#FFFFFF" /><path d="M139.871293 318.829022m-17.766561 0a17.766562 17.766562 0 1 0 35.533123 0 17.766562 17.766562 0 1 0-35.533123 0Z" fill="#FFFFFF" /><path d="M439.318612 305.907886c3.553312 2.261199 6.137539 5.491483 7.429653 10.013881 2.261199 8.721767-2.907256 17.766562-11.629022 20.02776-23.258044 6.137539-46.19306 14.213249-67.512934 24.550158-8.07571 3.876341-18.08959 0.323028-21.96593-7.752682-3.876341-8.07571-0.323028-18.08959 7.752681-21.96593 23.258044-10.982965 48.13123-20.02776 73.327445-26.811357 4.199369-0.969085 8.721767-0.323028 12.598107 1.93817z" fill="#FFFFFF" /><path d="M391.187382 495.525552m-38.763407 0a38.763407 38.763407 0 1 0 77.526814 0 38.763407 38.763407 0 1 0-77.526814 0Z" fill="#493B4E" /><path d="M334.334385 612.46183m-49.423344 0a49.423344 49.423344 0 1 0 98.846688 0 49.423344 49.423344 0 1 0-98.846688 0Z" fill="#E3FFE1" /><path d="M663.500315 576.928707m-49.423343 0a49.423344 49.423344 0 1 0 98.846687 0 49.423344 49.423344 0 1 0-98.846687 0Z" fill="#E3FFE1" /><path d="M596.31041 477.758991m-38.763407 0a38.763407 38.763407 0 1 0 77.526814 0 38.763407 38.763407 0 1 0-77.526814 0Z" fill="#493B4E" /><path d="M451.593691 616.015142c23.258044 5.168454 63.959621 10.336909 101.107886-4.845426 10.01388-4.199369 20.350789 5.168454 17.120505 15.505363-6.137539 21.965931-22.611987 49.746372-64.605678 52.976656-31.010726 2.261199-48.777287-10.659937-59.114196-26.1653-0.969085-1.292114-1.93817-2.907256-2.584227-4.199369-3.230284-5.814511-5.491483-11.95205-7.106625-17.443533-2.907256-9.367823 5.491483-18.08959 15.182335-15.828391z" fill="#493B4E" /><path d="M552.378549 658.65489c-10.982965-10.336909-27.134385-17.120505-51.038486-14.859306-21.319874 2.261199-35.856151 10.336909-45.870031 20.996845 10.659937 10.01388 26.488328 16.797476 49.746372 14.859306 22.288959-1.93817 37.148265-10.336909 47.162145-20.996845z" fill="#83A589" /></svg>